<svg width="30" height="29" viewBox="0 0 30 29" fill="none" xmlns="http://www.w3.org/2000/svg">
<path d="M6.01367 0C6.23795 0 6.45372 0.0894594 6.6123 0.248047C6.77075 0.406563 6.85931 0.621581 6.85938 0.845703C6.85938 1.06998 6.77089 1.28575 6.6123 1.44434C6.45373 1.60286 6.2379 1.69141 6.01367 1.69141H2.36816C2.18883 1.69141 2.0165 1.76289 1.88965 1.88965C1.76278 2.01652 1.69141 2.18874 1.69141 2.36816V19.9873H7.02246C7.54597 19.9883 8.04778 20.1972 8.41797 20.5674C8.78815 20.9376 8.9961 21.4394 8.99707 21.9629V27.2773H19.9092C20.0885 27.2773 20.2608 27.2059 20.3877 27.0791C20.5146 26.9522 20.5859 26.78 20.5859 26.6006V23.2988C20.5861 23.0747 20.6755 22.8597 20.834 22.7012C20.9925 22.5427 21.2075 22.4541 21.4316 22.4541C21.6558 22.4541 21.8707 22.5428 22.0293 22.7012C22.1878 22.8597 22.2772 23.0747 22.2773 23.2988V26.6104C22.2773 27.2383 22.028 27.8411 21.584 28.2852C21.1399 28.7292 20.5372 28.9785 19.9092 28.9785H7.75977C7.53643 28.9784 7.32192 28.8894 7.16406 28.7314L0.24707 21.8242C0.0891936 21.6664 0.000215057 21.4527 0 21.2295V2.36816C0 1.74019 0.249314 1.1374 0.693359 0.693359C1.13739 0.249424 1.74027 0 2.36816 0H6.01367ZM7.31934 26.5059V21.9668L7.31641 21.9629C7.31633 21.885 7.28557 21.81 7.23047 21.7549C7.17536 21.6998 7.10039 21.669 7.02246 21.6689H2.47949L7.31934 26.5059ZM19.4092 1C25.0426 1.00022 29.625 5.58329 29.625 11.2168C29.625 16.8503 25.0427 21.4343 19.4092 21.4346C13.7755 21.4346 9.19238 16.8505 9.19238 11.2168H10.8955C10.8955 15.9114 14.7145 19.7314 19.4092 19.7314C24.1036 19.7312 27.9219 15.9113 27.9219 11.2168C27.9218 6.52234 24.1036 2.70238 19.4092 2.70215C15.9728 2.70215 12.9368 4.72213 11.6055 7.81055H14.3008V9.5127H8.625V3.83887H10.3281V6.52734C12.0477 3.16339 15.513 1 19.4092 1ZM20.2598 10.8643L23.416 14.0205L22.2119 15.2246L18.5576 11.5693V4.40625H20.2598V10.8643Z" fill="#6E7375"/>
</svg>
