<svg width="34" height="32" viewBox="0 0 34 32" fill="none" xmlns="http://www.w3.org/2000/svg">
<path d="M6.01367 3.02206C6.23795 3.02206 6.45372 3.11152 6.6123 3.27011C6.77068 3.42867 6.85938 3.64365 6.85938 3.86777C6.85933 4.0919 6.77074 4.30689 6.6123 4.46542C6.45372 4.62401 6.23795 4.71347 6.01367 4.71347H2.36816C2.18874 4.71347 2.01652 4.78484 1.88965 4.91171C1.7628 5.03858 1.69141 5.21082 1.69141 5.39023V23.0094H7.02246C7.54597 23.0104 8.04778 23.2193 8.41797 23.5894C8.78809 23.9597 8.99618 24.4614 8.99707 24.985V30.2984H19.9092C20.0886 30.2984 20.2608 30.2271 20.3877 30.1002C20.5144 29.9734 20.5858 29.8019 20.5859 29.6227V26.3209C20.5859 26.0966 20.6754 25.8818 20.834 25.7232C20.9925 25.5647 21.2074 25.4752 21.4316 25.4752C21.6559 25.4752 21.8707 25.5647 22.0293 25.7232C22.1879 25.8818 22.2773 26.0966 22.2773 26.3209V29.6324C22.2773 30.2603 22.0279 30.8622 21.584 31.3062C21.1399 31.7503 20.5372 32.0006 19.9092 32.0006H7.75977C7.53646 32.0005 7.32192 31.9115 7.16406 31.7535L0.24707 24.8463C0.0890885 24.6884 0.00012484 24.4739 0 24.2506V5.39023C0 4.76227 0.249332 4.15947 0.693359 3.71542C1.1374 3.27138 1.74019 3.02206 2.36816 3.02206H6.01367ZM15.4795 0.620697C17.8875 -0.204178 20.5014 -0.20703 22.9111 0.612885C25.3209 1.43285 27.3907 3.02954 28.7959 5.15195C30.201 7.27434 30.8619 9.80285 30.6758 12.3414C30.4897 14.88 29.4673 17.2855 27.7676 19.1803L31.9756 23.3268C32.5197 23.8604 32.8922 24.5443 33.0469 25.2906C33.2015 26.0369 33.1309 26.8122 32.8438 27.5182C32.5566 28.2241 32.0662 28.8291 31.4346 29.2555C30.8029 29.6819 30.0581 29.9104 29.2959 29.9127C29.0693 29.9122 28.8432 29.8921 28.6201 29.8521C28.4983 29.8318 28.3791 29.8049 28.2607 29.7711C27.7164 29.619 27.2125 29.348 26.7852 28.9781C26.3576 28.6079 26.0165 28.1468 25.7881 27.6295L23.3975 22.2174C22.0712 22.7387 20.6584 23.006 19.2334 23.0055C18.5358 23.0047 17.8396 22.9412 17.1533 22.816C14.6487 22.3615 12.3648 21.0891 10.6611 19.1978C8.95757 17.3066 7.92967 14.903 7.73828 12.3648C7.54701 9.82674 8.20281 7.2967 9.60352 5.17148C11.0044 3.0461 13.0714 1.44566 15.4795 0.620697ZM7.31934 29.5279V24.9879L7.31641 24.985C7.31641 24.907 7.28551 24.8321 7.23047 24.7769C7.17536 24.7218 7.10039 24.6911 7.02246 24.691H2.47949L7.31934 29.5279ZM26.5527 20.3365C26.298 20.5507 26.0322 20.7542 25.7549 20.9459C25.4798 21.1353 25.1985 21.3125 24.9121 21.4771L27.3242 26.9225C27.4525 27.2134 27.6434 27.473 27.8838 27.6812C28.1242 27.8895 28.4085 28.0411 28.7148 28.1266L28.917 28.1744C29.2124 28.2288 29.5164 28.2206 29.8086 28.151C30.1007 28.0813 30.3752 27.9518 30.6143 27.7701C30.8534 27.5883 31.052 27.3582 31.1973 27.0953C31.3425 26.8324 31.4314 26.5419 31.458 26.2428C31.4843 25.9251 31.4394 25.6055 31.3271 25.3072C31.2149 25.009 31.0377 24.7395 30.8086 24.5182L26.5527 20.3365ZM19.1826 1.67929C17.1891 1.67983 15.2437 2.29123 13.6084 3.43124C12.0092 4.5355 10.774 6.08978 10.0596 7.89706C9.34519 9.70444 9.18367 11.6833 9.5957 13.5826C10.0077 15.4818 10.974 17.2162 12.373 18.565C13.7722 19.9139 15.541 20.8164 17.4541 21.1588C20.0162 21.623 22.6579 21.0504 24.7979 19.567C26.9377 18.0836 28.401 15.8107 28.8652 13.2486C29.3294 10.6866 28.7568 8.04477 27.2734 5.90488C25.79 3.76498 23.5171 2.30178 20.9551 1.83749C20.3703 1.73156 19.7769 1.67913 19.1826 1.67929ZM25.332 7.76718C25.5553 7.76724 25.7698 7.85635 25.9277 8.01425C26.0856 8.17219 26.1738 8.38665 26.1738 8.60995V11.6744L26.1846 11.6578C26.1845 11.882 26.095 12.0969 25.9365 12.2555C25.778 12.414 25.563 12.5034 25.3389 12.5035C25.1146 12.5035 24.8988 12.4141 24.7402 12.2555C24.5818 12.097 24.4932 11.8819 24.4932 11.6578V10.6432L20.8867 14.2447C20.7288 14.4025 20.5152 14.4917 20.292 14.4918C20.0687 14.4918 19.8542 14.4025 19.6963 14.2447L17.0518 11.6002L13.6689 14.983C13.5916 15.0648 13.4985 15.1301 13.3955 15.1754C13.2924 15.2207 13.1809 15.2441 13.0684 15.2457C12.9559 15.2473 12.8444 15.2264 12.7402 15.1842C12.6359 15.1418 12.5406 15.0792 12.4609 14.9996C12.3815 14.9201 12.3187 14.8254 12.2764 14.7213C12.234 14.617 12.2133 14.5048 12.2148 14.3922C12.2164 14.2796 12.2399 14.1681 12.2852 14.065C12.3304 13.962 12.3967 13.8689 12.4785 13.7916L16.459 9.81406C16.6169 9.65625 16.8314 9.56797 17.0547 9.56796C17.278 9.56796 17.4925 9.65625 17.6504 9.81406L20.2949 12.4596L23.2852 9.45859H22.2705C22.0464 9.45856 21.8314 9.36992 21.6729 9.21152C21.5143 9.05293 21.4248 8.83716 21.4248 8.61288C21.4249 8.38874 21.5144 8.17373 21.6729 8.01523C21.8314 7.85675 22.0463 7.76721 22.2705 7.76718H25.332Z" fill="#6E7375"/>
</svg>
