<svg width="20" height="20" viewBox="0 0 20 20" fill="none" xmlns="http://www.w3.org/2000/svg">
<path d="M16.6663 9.39064V10.004C16.6655 11.4416 16.2 12.8404 15.3392 13.9919C14.4784 15.1433 13.2685 15.9856 11.8899 16.3932C10.5113 16.8009 9.03785 16.7519 7.68932 16.2537C6.34079 15.7555 5.18944 14.8347 4.40698 13.6287C3.62452 12.4227 3.25287 10.996 3.34746 9.56152C3.44205 8.12702 3.99781 6.76153 4.93186 5.66869C5.86591 4.57586 7.1282 3.81423 8.53047 3.49741C9.93273 3.18059 11.3999 3.32554 12.713 3.91065M7.49967 8.61127L9.6882 10.7998C10.0136 11.1252 10.5413 11.1252 10.8667 10.7998L15.833 5.8335" stroke="white" stroke-width="0.9375" stroke-linecap="round" stroke-linejoin="round"/>
</svg>
