<svg width="24" height="24" viewBox="0 0 24 24" fill="none" xmlns="http://www.w3.org/2000/svg">
<path d="M2.00049 9.50053C2.00051 8.38773 2.33808 7.30111 2.96862 6.38419C3.59916 5.46727 4.49301 4.76319 5.5321 4.36493C6.57119 3.96667 7.70665 3.89297 8.7885 4.15357C9.87036 4.41417 10.8477 4.99681 11.5915 5.82453C11.6439 5.88054 11.7072 5.9252 11.7776 5.95573C11.8479 5.98626 11.9238 6.00201 12.0005 6.00201C12.0772 6.00201 12.1531 5.98626 12.2234 5.95573C12.2938 5.9252 12.3571 5.88054 12.4095 5.82453C13.1509 4.99143 14.1285 4.4039 15.2121 4.14013C16.2957 3.87636 17.434 3.94887 18.4754 4.34801C19.5167 4.74715 20.4119 5.45398 21.0416 6.37443C21.6713 7.29488 22.0058 8.38529 22.0005 9.50053C22.0005 11.7905 20.5005 13.5005 19.0005 15.0005L13.5085 20.3135C13.3222 20.5275 13.0924 20.6994 12.8345 20.8178C12.5767 20.9362 12.2965 20.9984 12.0128 21.0002C11.729 21.002 11.4481 20.9434 11.1888 20.8283C10.9294 20.7131 10.6975 20.5442 10.5085 20.3325L5.00049 15.0005C3.50049 13.5005 2.00049 11.8005 2.00049 9.50053Z" stroke="#E60076" stroke-width="1.66667" stroke-linecap="round" stroke-linejoin="round"/>
</svg>
