<svg width="18" height="15" viewBox="0 0 18 15" fill="none" xmlns="http://www.w3.org/2000/svg">
<path d="M15.5163 1.98375C15.1253 1.59262 14.6611 1.28234 14.1502 1.07065C13.6393 0.858958 13.0917 0.75 12.5387 0.75C11.9857 0.75 11.4381 0.858958 10.9272 1.07065C10.4163 1.28234 9.95211 1.59262 9.56116 1.98375L9.05817 2.48674C8.88786 2.65705 8.61173 2.65705 8.44142 2.48674L7.93843 1.98375C7.14874 1.19406 6.07768 0.750409 4.96089 0.750409C3.84409 0.750409 2.77303 1.19406 1.98334 1.98375C1.19365 2.77344 0.75 3.8445 0.75 4.9613C0.75 6.07809 1.19365 7.14915 1.98334 7.93884L6.89957 12.8551C7.92142 13.8769 9.57817 13.8769 10.6 12.8551L15.5163 7.93884C15.9074 7.54789 16.2177 7.08371 16.4294 6.57281C16.641 6.06191 16.75 5.51431 16.75 4.9613C16.75 4.40828 16.641 3.86068 16.4294 3.34978C16.2177 2.83888 15.9074 2.3747 15.5163 1.98375Z" stroke="#898D8F" stroke-width="1.5" stroke-linecap="round" stroke-linejoin="round"/>
</svg>
