<svg width="18" height="18" viewBox="0 0 18 18" fill="none" xmlns="http://www.w3.org/2000/svg">
<path d="M16.75 8.75C16.7532 9.99222 16.463 11.2176 15.9029 12.3265C15.2389 13.6552 14.218 14.7727 12.9546 15.554C11.6913 16.3353 10.2354 16.7494 8.75 16.75C7.72753 16.7526 6.71645 16.5565 5.7724 16.1747C5.37628 16.0145 4.94625 15.9414 4.52496 16.0128L2.47923 16.2307C1.78226 16.3049 1.19455 15.7171 1.26894 15.0201L1.48722 12.975C1.55858 12.5538 1.48551 12.1237 1.32531 11.7276C0.943517 10.7836 0.747361 9.77247 0.750027 8.75C0.750602 7.2646 1.16472 5.80869 1.94599 4.54536C2.72727 3.28202 3.84484 2.26114 5.17354 1.59708C6.28235 1.03702 7.50778 0.746788 8.75 0.750027H9.22059C11.1823 0.858254 13.0352 1.68627 14.4245 3.07553C15.8137 4.4648 16.6417 6.31768 16.75 8.27941V8.75Z" stroke="#898D8F" stroke-width="1.5" stroke-linecap="round" stroke-linejoin="round"/>
</svg>
