<svg width="22" height="22" viewBox="0 0 22 22" fill="none" xmlns="http://www.w3.org/2000/svg">
<path d="M14.0109 7.99521L8.01093 13.9952M8.01093 7.99521H8.02094M14.0109 13.9952H14.0209M2.86093 7.61521C2.71498 6.95774 2.73739 6.27406 2.92609 5.62755C3.1148 4.98105 3.46368 4.39266 3.9404 3.91694C4.41712 3.44121 5.00624 3.09356 5.65314 2.90621C6.30004 2.71886 6.98377 2.69788 7.64093 2.84521C8.00264 2.27952 8.50094 1.81397 9.08989 1.4915C9.67883 1.16903 10.3395 1 11.0109 1C11.6824 1 12.343 1.16903 12.932 1.4915C13.5209 1.81397 14.0192 2.27952 14.3809 2.84521C15.0391 2.69724 15.724 2.71812 16.3719 2.90593C17.0199 3.09373 17.6098 3.44236 18.0868 3.91937C18.5638 4.39638 18.9124 4.98629 19.1002 5.63422C19.288 6.28214 19.3089 6.96705 19.1609 7.62521C19.7266 7.98692 20.1922 8.48522 20.5146 9.07417C20.8371 9.66311 21.0061 10.3238 21.0061 10.9952C21.0061 11.6667 20.8371 12.3273 20.5146 12.9163C20.1922 13.5052 19.7266 14.0035 19.1609 14.3652C19.3083 15.0224 19.2873 15.7061 19.0999 16.353C18.9126 16.9999 18.5649 17.589 18.0892 18.0657C17.6135 18.5425 17.0251 18.8914 16.3786 19.0801C15.7321 19.2688 15.0484 19.2912 14.3909 19.1452C14.0297 19.7131 13.531 20.1806 12.9411 20.5045C12.3511 20.8284 11.689 20.9983 11.0159 20.9983C10.3429 20.9983 9.68076 20.8284 9.09081 20.5045C8.50086 20.1806 8.00217 19.7131 7.64093 19.1452C6.98377 19.2925 6.30004 19.2716 5.65314 19.0842C5.00624 18.8969 4.41712 18.5492 3.9404 18.0735C3.46368 17.5978 3.1148 17.0094 2.92609 16.3629C2.73739 15.7164 2.71498 15.0327 2.86093 14.3752C2.29089 14.0145 1.82135 13.5154 1.49598 12.9244C1.17062 12.3335 1 11.6698 1 10.9952C1 10.3206 1.17062 9.65696 1.49598 9.066C1.82135 8.47504 2.29089 7.97597 2.86093 7.61521Z" stroke="#00A63E" stroke-width="2" stroke-linecap="round" stroke-linejoin="round"/>
</svg>
