<svg width="26" height="26" viewBox="0 0 26 26" fill="none" xmlns="http://www.w3.org/2000/svg">
<path d="M16.3464 9.32782L9.34644 16.3278M9.34644 9.32782H9.3581M16.3464 16.3278H16.3581M3.33784 8.88444C3.16755 8.11738 3.1937 7.31975 3.41386 6.5655C3.63401 5.81125 4.04104 5.12479 4.59722 4.56978C5.15339 4.01477 5.8407 3.60917 6.59541 3.3906C7.35013 3.17202 8.14781 3.14755 8.91451 3.31944C9.3365 2.65946 9.91784 2.11632 10.6049 1.7401C11.2921 1.36389 12.0628 1.16669 12.8462 1.16669C13.6295 1.16669 14.4003 1.36389 15.0874 1.7401C15.7745 2.11632 16.3558 2.65946 16.7778 3.31944C17.5457 3.1468 18.3448 3.17116 19.1007 3.39027C19.8566 3.60938 20.5448 4.0161 21.1013 4.57262C21.6578 5.12913 22.0646 5.81736 22.2837 6.57327C22.5028 7.32919 22.5271 8.12824 22.3545 8.8961C23.0145 9.3181 23.5576 9.89944 23.9338 10.5865C24.3101 11.2737 24.5073 12.0444 24.5073 12.8278C24.5073 13.6111 24.3101 14.3819 23.9338 15.069C23.5576 15.7561 23.0145 16.3374 22.3545 16.7594C22.5264 17.5261 22.5019 18.3238 22.2833 19.0785C22.0648 19.8332 21.6592 20.5205 21.1042 21.0767C20.5492 21.6329 19.8627 22.0399 19.1084 22.2601C18.3542 22.4802 17.5566 22.5064 16.7895 22.3361C16.3681 22.9986 15.7863 23.5441 15.098 23.922C14.4097 24.2999 13.6372 24.498 12.852 24.498C12.0668 24.498 11.2943 24.2999 10.606 23.922C9.91775 23.5441 9.33595 22.9986 8.91451 22.3361C8.14781 22.508 7.35013 22.4835 6.59541 22.2649C5.8407 22.0464 5.15339 21.6408 4.59722 21.0858C4.04104 20.5308 3.63401 19.8443 3.41386 19.09C3.1937 18.3358 3.16755 17.5382 3.33784 16.7711C2.67279 16.3502 2.12499 15.768 1.7454 15.0785C1.3658 14.3891 1.16675 13.6148 1.16675 12.8278C1.16675 12.0407 1.3658 11.2665 1.7454 10.577C2.12499 9.88757 2.67279 9.30532 3.33784 8.88444Z" stroke="#C10007" stroke-width="2.33333" stroke-linecap="round" stroke-linejoin="round"/>
</svg>
