<svg width="22" height="16" viewBox="0 0 22 16" fill="none" xmlns="http://www.w3.org/2000/svg">
<path d="M0.895757 8.1807C0.812417 7.95618 0.812417 7.70921 0.895757 7.4847C1.70746 5.51655 3.08527 3.83374 4.85453 2.6496C6.62378 1.46545 8.7048 0.833313 10.8338 0.833313C12.9627 0.833313 15.0437 1.46545 16.813 2.6496C18.5822 3.83374 19.9601 5.51655 20.7718 7.4847C20.8551 7.70921 20.8551 7.95618 20.7718 8.1807C19.9601 10.1488 18.5822 11.8317 16.813 13.0158C15.0437 14.1999 12.9627 14.8321 10.8338 14.8321C8.7048 14.8321 6.62378 14.1999 4.85453 13.0158C3.08527 11.8317 1.70746 10.1488 0.895757 8.1807Z" stroke="#9810FA" stroke-width="1.66667" stroke-linecap="round" stroke-linejoin="round"/>
<path d="M10.834 10.8329C12.4909 10.8329 13.834 9.48978 13.834 7.83292C13.834 6.17607 12.4909 4.83292 10.834 4.83292C9.17718 4.83292 7.83403 6.17607 7.83403 7.83292C7.83403 9.48978 9.17718 10.8329 10.834 10.8329Z" stroke="#9810FA" stroke-width="1.66667" stroke-linecap="round" stroke-linejoin="round"/>
</svg>
