<svg width="59" height="48" viewBox="0 0 59 48" fill="none" xmlns="http://www.w3.org/2000/svg">
<path d="M34.6667 40V7.99996C34.6667 6.58547 34.1048 5.22892 33.1047 4.22872C32.1045 3.22853 30.7479 2.66663 29.3334 2.66663H8.00008C6.58559 2.66663 5.22904 3.22853 4.22885 4.22872C3.22865 5.22892 2.66675 6.58547 2.66675 7.99996V37.3333C2.66675 38.0405 2.9477 38.7188 3.4478 39.2189C3.94789 39.719 4.62617 40 5.33341 40H10.6667M10.6667 40C10.6667 42.9455 13.0546 45.3333 16.0001 45.3333C18.9456 45.3333 21.3337 42.9452 21.3337 39.9996M10.6667 40C10.6667 37.0544 13.0546 34.6666 16.0001 34.6666C18.9456 34.6666 21.3337 37.0541 21.3337 39.9996M37.3337 39.9996H21.3337M37.3337 39.9996C37.3337 42.9452 39.7216 45.3333 42.6671 45.3333C45.6126 45.3333 48.0001 42.9448 48.0001 39.9993M37.3337 39.9996C37.3337 37.0541 39.7216 34.6666 42.6671 34.6666C45.6126 34.6666 48.0001 37.0538 48.0001 39.9993M48.0001 39.9993H53.3334C54.0407 39.9993 54.7189 39.7184 55.219 39.2183C55.7191 38.7182 56.0001 38.0399 56.0001 37.3326V27.5993C55.999 26.9941 55.7921 26.4073 55.4134 25.9353L46.1334 14.3353C45.884 14.023 45.5676 13.7707 45.2076 13.5972C44.8475 13.4236 44.4531 13.3332 44.0534 13.3326H34.6667" stroke="white" stroke-opacity="0.2" stroke-width="5.33333" stroke-linecap="round" stroke-linejoin="round"/>
</svg>
