<svg width="22" height="22" viewBox="0 0 22 22" fill="none" xmlns="http://www.w3.org/2000/svg">
<path d="M11 9.18945V13.0005M11 1V4M18 12V6C18 5.46957 17.7893 4.96086 17.4142 4.58579C17.0391 4.21071 16.5304 4 16 4H6C5.46957 4 4.96086 4.21071 4.58579 4.58579C4.21071 4.96086 4 5.46957 4 6V12M18.3796 18.9997C19.4553 17.1843 20.0154 15.1099 19.9996 12.9997L11.8116 9.36073C11.5559 9.24716 11.2793 9.18848 10.9996 9.18848C10.7199 9.18848 10.4432 9.24716 10.1876 9.36073L1.99959 12.9997C1.95329 15.8434 2.9533 18.605 4.80958 20.7597M1 20C1.6 20.5 2.2 21 3.5 21C6 21 6 19 8.5 19C9.8 19 10.4 19.5 11 20C11.6 20.5 12.2 21 13.5 21C16 21 16 19 18.5 19C19.8 19 20.4 19.5 21 20" stroke="white" stroke-width="2" stroke-linecap="round" stroke-linejoin="round"/>
</svg>
