<svg width="26" height="26" viewBox="0 0 26 26" fill="none" xmlns="http://www.w3.org/2000/svg">
<path d="M12.8337 10.7205V15.1667M12.8337 10.7205C13.1601 10.7205 13.4828 10.7887 13.7811 10.9212L23.3338 15.1667C23.3522 17.6285 22.6987 20.0487 21.4438 22.1667M12.8337 10.7205C12.5074 10.7205 12.1847 10.7887 11.8864 10.9212L2.33375 15.1667C2.27975 18.4843 3.44642 21.7061 5.61209 24.22M12.8337 1.16666V4.66666M21.0001 14.0002V7.00015C21.0001 6.38131 20.7542 5.78782 20.3167 5.35024C19.8791 4.91265 19.2856 4.66682 18.6667 4.66682H7.00008C6.38124 4.66682 5.78775 4.91265 5.35017 5.35024C4.91258 5.78782 4.66675 6.38131 4.66675 7.00015V14.0002M1.16675 23.3335C1.86675 23.9168 2.56675 24.5002 4.08342 24.5002C7.00008 24.5002 7.00008 22.1668 9.91675 22.1668C11.4334 22.1668 12.1334 22.7502 12.8334 23.3335C13.5334 23.9168 14.2334 24.5002 15.7501 24.5002C18.6667 24.5002 18.6667 22.1668 21.5834 22.1668C23.1001 22.1668 23.8001 22.7502 24.5001 23.3335" stroke="#008236" stroke-width="2.33333" stroke-linecap="round" stroke-linejoin="round"/>
</svg>
