<svg width="70" height="61" viewBox="0 0 70 61" fill="none" xmlns="http://www.w3.org/2000/svg">
<path d="M69.0213 36.6172H62.5399V6.48047H8.26254V55.8975H8.24789V59.2598L9.37289 60.5801C9.41978 60.7529 9.42935 61.0499 9.09164 60.8574C8.75141 60.6635 3.88396 57.952 1.49203 56.6201C0.366109 55.8791 -1.21018 53.73 1.49203 51.0625C1.66043 50.8962 1.74963 50.7623 1.77328 50.7158V44.3936H1.78207V0H69.0213V36.6172Z" fill="#FFB703"/>
<path d="M32.8104 53.0918C33.1528 53.0918 33.4697 53.1396 33.7606 53.2354C34.0514 53.3292 34.3073 53.4672 34.5282 53.6494C34.7491 53.8298 34.9282 54.0522 35.0662 54.3154C35.2043 54.5787 35.2899 54.88 35.3231 55.2188H33.9422C33.9238 55.0772 33.8869 54.949 33.8299 54.835C33.7729 54.7209 33.6971 54.623 33.6034 54.542C33.5095 54.461 33.3973 54.3988 33.2684 54.3564C33.1416 54.3124 33.0009 54.2901 32.8465 54.29C32.5722 54.29 32.3354 54.3578 32.1366 54.4922C31.9396 54.6266 31.7873 54.8211 31.6805 55.0752C31.5757 55.3292 31.5233 55.6365 31.5233 55.9971C31.5233 56.3725 31.5767 56.6874 31.6834 56.9414C31.7921 57.1936 31.9443 57.3848 32.1395 57.5137C32.3364 57.6406 32.5692 57.7041 32.8377 57.7041C32.9887 57.7041 33.1265 57.6851 33.2498 57.6465C33.3749 57.6078 33.4841 57.5511 33.578 57.4775C33.6737 57.4021 33.7526 57.3109 33.8133 57.2041C33.8758 57.0956 33.9183 56.973 33.9422 56.8369L35.3231 56.8447C35.2992 57.0951 35.2268 57.342 35.1053 57.585C34.9856 57.828 34.8211 58.0503 34.6112 58.251C34.4014 58.4497 34.1454 58.6078 33.8436 58.7256C33.5435 58.8434 33.1989 58.9023 32.8104 58.9023C32.2986 58.9023 31.8404 58.79 31.4354 58.5654C31.0322 58.339 30.7132 58.0098 30.4793 57.5771C30.2455 57.1445 30.1287 56.6175 30.1287 55.9971C30.1288 55.3749 30.2478 54.8476 30.4852 54.415C30.7227 53.9824 31.044 53.6533 31.4491 53.4287C31.8541 53.2042 32.3078 53.0918 32.8104 53.0918Z" fill="#FFB703"/>
<path d="M18.787 56.6709H18.8534L20.2899 53.1689H21.9823V58.8252H20.6512V55.3506H20.6043L19.2459 58.7891H18.3954L17.036 55.332H16.9891V58.8252H15.658V53.1689H17.3514L18.787 56.6709Z" fill="#FFB703"/>
<path fill-rule="evenodd" clip-rule="evenodd" d="M29.036 58.8252H27.5672L27.1942 57.6377H25.2411L24.869 58.8252H23.3993L25.3075 53.1689H27.1278L29.036 58.8252ZM25.5662 56.5996H26.868L26.2381 54.5947H26.1942L25.5662 56.5996Z" fill="#FFB703"/>
<path d="M38.283 55.4395H40.5116V53.1689H41.8758V58.8252H40.5116V56.5527H38.283V58.8252H36.9159V53.1689H38.283V55.4395Z" fill="#FFB703"/>
<path d="M44.911 58.8252H43.5438V53.1689H44.911V58.8252Z" fill="#FFB703"/>
<path d="M49.9813 56.4277H50.0282V53.1689H51.3924V58.8252H50.2332L47.9823 55.5605H47.9461V58.8252H46.5789V53.1689H47.7557L49.9813 56.4277Z" fill="#FFB703"/>
<path d="M57.0057 54.2793H54.4295V55.4395H56.8045V56.5527H54.4295V57.7148H57.0057V58.8252H53.0623V53.1689H57.0057V54.2793Z" fill="#FFB703"/>
<path fill-rule="evenodd" clip-rule="evenodd" d="M61.0086 53.1689C61.4321 53.1689 61.7978 53.2456 62.1053 53.3984C62.4144 53.5493 62.6526 53.7665 62.8202 54.0498C62.9877 54.3315 63.0721 54.6661 63.0721 55.0527C63.0721 55.4449 62.9865 55.7784 62.8153 56.0527C62.6452 56.3234 62.4035 56.5294 62.0916 56.6729L63.2655 58.8252H61.7743L60.7401 56.8896H60.0399V58.8252H58.6727V53.1689H61.0086ZM60.0399 55.8125H60.7137C60.9195 55.8125 61.0914 55.7857 61.2293 55.7324C61.3693 55.6772 61.4759 55.5939 61.5477 55.4834C61.6194 55.3711 61.6551 55.2275 61.6551 55.0527C61.6551 54.8779 61.6194 54.7333 61.5477 54.6191C61.4759 54.5031 61.3693 54.4165 61.2293 54.3594C61.0896 54.3006 60.9177 54.2715 60.7137 54.2715H60.0399V55.8125Z" fill="#FFB703"/>
<path d="M66.8221 55.5361H66.8719L68.0682 53.1689H69.5955L67.5272 56.9365V58.8252H66.1678V56.9365L64.0994 53.1689H65.6268L66.8221 55.5361Z" fill="#FFB703"/>
<path d="M25.4813 42.9053H22.0789V51.7432H19.0526V42.9053H15.6502V40.4307H25.4813V42.9053Z" fill="#FFB703"/>
<path fill-rule="evenodd" clip-rule="evenodd" d="M31.5204 40.4307C32.3598 40.4307 33.0948 40.584 33.7245 40.8896C34.3539 41.1953 34.8435 41.6356 35.1932 42.21C35.5429 42.7843 35.7176 43.4728 35.7176 44.2754C35.7176 45.0854 35.5373 45.7682 35.1766 46.3242C34.8431 46.8433 34.3818 47.2418 33.7948 47.5234L36.0936 51.7432H32.7577L30.7723 48.0098H29.7088V51.7432H26.6375V40.4307H31.5204ZM29.7088 45.623H30.7909C31.1517 45.623 31.4596 45.5786 31.7137 45.4902C31.9712 45.3982 32.1684 45.2533 32.3045 45.0547C32.4445 44.8558 32.5145 44.5958 32.5145 44.2754C32.5145 43.9514 32.4444 43.6879 32.3045 43.4854C32.1683 43.2792 31.9714 43.1279 31.7137 43.0322C31.4596 42.9328 31.1517 42.8838 30.7909 42.8838H29.7088V45.623Z" fill="#FFB703"/>
<path fill-rule="evenodd" clip-rule="evenodd" d="M48.3172 51.7432H45.0028L44.3495 49.5781H40.619L39.9657 51.7432H36.6512L40.3856 40.4307H44.5829L48.3172 51.7432ZM41.3133 47.2803H43.6551L42.5282 43.5459H42.4403L41.3133 47.2803Z" fill="#FFB703"/>
<path fill-rule="evenodd" clip-rule="evenodd" d="M53.7147 40.4307C54.8781 40.4307 55.8834 40.6575 56.7303 41.1104C57.5809 41.5596 58.2368 42.2078 58.6971 43.0547C59.161 43.8979 59.3934 44.9087 59.3934 46.0869C59.3934 47.2651 59.1632 48.2781 58.703 49.125C58.2427 49.9683 57.5902 50.6164 56.7469 51.0693C55.9037 51.5185 54.9074 51.7432 53.7586 51.7432H49.4061V40.4307H53.7147ZM52.4774 49.1357H53.6483C54.208 49.1357 54.685 49.0456 55.0789 48.8652C55.4766 48.6848 55.779 48.3735 55.9852 47.9316C56.195 47.4898 56.2996 46.8747 56.2996 46.0869C56.2996 45.299 56.1929 44.684 55.9793 44.2422C55.7694 43.8004 55.4603 43.489 55.0516 43.3086C54.6466 43.1282 54.1495 43.0381 53.5604 43.0381H52.4774V49.1357Z" fill="#FFB703"/>
<path d="M68.9666 42.9053H63.8846V44.8496H68.5467V47.3242H63.8846V49.2686H68.9442V51.7432H60.8143V40.4307H68.9666V42.9053Z" fill="#FFB703"/>
<path d="M32.994 19.0586H22.8299V22.9463H32.1541V27.8955H22.8299V31.7842H32.9491V36.7334H16.6883V14.1094H32.994V19.0586Z" fill="#FFB703"/>
<path d="M54.6424 17.5117L43.9491 31.7842H54.5985V36.7334H36.1278V33.3311L46.8211 19.0586H36.1727V14.1094H54.6424V17.5117Z" fill="#FFB703"/>
</svg>
