<svg width="126" height="36" viewBox="0 0 126 36" fill="none" xmlns="http://www.w3.org/2000/svg">
<path d="M104.327 24.5743V11.8647H113.487V14.645H107.778V16.8294H113.015V19.6096H107.778V21.7941H113.462V24.5743H104.327Z" fill="#FFB703"/>
<path d="M96.4007 24.5743H91.5105V11.8647H96.3511C97.6584 11.8647 98.7879 12.1192 99.7394 12.6281C100.695 13.1328 101.432 13.861 101.949 14.8125C102.47 15.7599 102.731 16.8956 102.731 18.2195C102.731 19.5434 102.472 20.6812 101.955 21.6327C101.438 22.5802 100.705 23.3083 99.7581 23.8172C98.8106 24.3219 97.6915 24.5743 96.4007 24.5743ZM94.9609 21.6451H96.2766C96.9054 21.6451 97.4412 21.5438 97.8839 21.3411C98.3307 21.1383 98.67 20.7887 98.9017 20.2923C99.1375 19.7958 99.2554 19.1049 99.2554 18.2195C99.2554 17.3342 99.1354 16.6432 98.8954 16.1468C98.6596 15.6503 98.3121 15.3007 97.8529 15.098C97.3978 14.8953 96.8392 14.7939 96.1773 14.7939H94.9609V21.6451Z" fill="#FFB703"/>
<path d="M80.9032 24.5743H77.1797L81.3748 11.8647H86.0912L90.2864 24.5743H86.5629L83.7827 15.3648H83.6834L80.9032 24.5743ZM80.2081 19.56H87.2083V22.1416H80.2081V19.56Z" fill="#FFB703"/>
<path d="M65.9284 24.5743V11.8647H71.4144C72.3577 11.8647 73.1831 12.0364 73.8905 12.3798C74.598 12.7232 75.1482 13.2176 75.5413 13.863C75.9343 14.5084 76.1308 15.2821 76.1308 16.184C76.1308 17.0942 75.9281 17.8616 75.5227 18.4864C75.1214 19.1111 74.5566 19.5827 73.8285 19.9013C73.1045 20.2199 72.2584 20.3791 71.2903 20.3791H68.0136V17.6982H70.5952C71.0007 17.6982 71.3461 17.6486 71.6316 17.5493C71.9212 17.4459 72.1425 17.2824 72.2956 17.059C72.4528 16.8356 72.5315 16.5439 72.5315 16.184C72.5315 15.8199 72.4528 15.5241 72.2956 15.2966C72.1425 15.0649 71.9212 14.8953 71.6316 14.7877C71.3461 14.676 71.0007 14.6201 70.5952 14.6201H69.3789V24.5743H65.9284ZM73.3754 18.7408L76.5528 24.5743H72.8045L69.7016 18.7408H73.3754Z" fill="#FFB703"/>
<path d="M53.5835 14.645V11.8647H64.6299V14.645H60.8071V24.5743H57.4063V14.645H53.5835Z" fill="#FFB703"/>
<path d="M31.7715 33.1866V29.9714L41.8764 16.4843H31.8133V11.8077H49.2671V15.0229L39.1623 28.5099H49.2254V33.1866H31.7715Z" fill="#FFB703"/>
<path d="M13.4018 33.1866V11.8077H28.8096V16.4843H19.2058V20.1588H28.0163V24.8354H19.2058V28.5099H28.7679V33.1866H13.4018Z" fill="#FFB703"/>
<path d="M108.018 26.8135H109.734L111.078 29.4727H111.134L112.477 26.8135H114.193L111.869 31.0459V33.1683H110.342V31.0459L108.018 26.8135Z" fill="#FFB703"/>
<path d="M101.921 33.1683V26.8135H104.546C105.022 26.8135 105.432 26.8994 105.778 27.0711C106.125 27.2407 106.393 27.4848 106.582 27.8034C106.77 28.1199 106.864 28.4953 106.864 28.9297C106.864 29.3703 106.768 29.7448 106.575 30.053C106.383 30.3591 106.11 30.5929 105.756 30.7542C105.402 30.9135 104.984 30.9932 104.5 30.9932H102.839V29.783H104.214C104.446 29.783 104.639 29.753 104.794 29.693C104.952 29.631 105.07 29.5379 105.151 29.4138C105.232 29.2876 105.272 29.1262 105.272 28.9297C105.272 28.7332 105.232 28.5708 105.151 28.4426C105.07 28.3122 104.952 28.215 104.794 28.1509C104.637 28.0847 104.444 28.0516 104.214 28.0516H103.457V33.1683H101.921ZM105.499 30.264L107.081 33.1683H105.406L103.854 30.264H105.499Z" fill="#FFB703"/>
<path d="M95.6177 33.1683V26.8135H100.049V28.0609H97.1537V29.3641H99.8222V30.6146H97.1537V31.9209H100.049V33.1683H95.6177Z" fill="#FFB703"/>
<path d="M93.742 26.8135V33.1683H92.4388L89.9099 29.5007H89.8695V33.1683H88.3336V26.8135H89.6554L92.1564 30.475H92.2091V26.8135H93.742Z" fill="#FFB703"/>
<path d="M86.4589 26.8135V33.1683H84.923V26.8135H86.4589Z" fill="#FFB703"/>
<path d="M77.4766 33.1683V26.8135H79.0125V29.3641H81.5166V26.8135H83.0494V33.1683H81.5166V30.6146H79.0125V33.1683H77.4766Z" fill="#FFB703"/>
<path d="M75.6877 29.1159H74.1362C74.1156 28.9566 74.0731 28.8128 74.009 28.6846C73.9449 28.5563 73.8601 28.4467 73.7546 28.3557C73.6491 28.2646 73.5239 28.1953 73.3791 28.1478C73.2364 28.0981 73.0781 28.0733 72.9044 28.0733C72.5962 28.0733 72.3303 28.1488 72.1069 28.2998C71.8856 28.4508 71.7149 28.669 71.5949 28.9545C71.477 29.24 71.4181 29.5854 71.4181 29.9909C71.4181 30.4129 71.4781 30.7666 71.598 31.0521C71.7201 31.3355 71.8908 31.5496 72.11 31.6944C72.3314 31.8371 72.5931 31.9085 72.8951 31.9085C73.0647 31.9085 73.2188 31.8868 73.3574 31.8433C73.4981 31.7999 73.6212 31.7368 73.7267 31.6541C73.8342 31.5692 73.9221 31.4668 73.9904 31.3469C74.0607 31.2248 74.1093 31.0873 74.1362 30.9342L75.6877 30.9435C75.6608 31.2248 75.5791 31.502 75.4426 31.7751C75.3081 32.0481 75.123 32.2974 74.8871 32.5229C74.6513 32.7463 74.3638 32.9242 74.0245 33.0566C73.6873 33.189 73.3005 33.2552 72.864 33.2552C72.289 33.2552 71.7739 33.129 71.3188 32.8766C70.8658 32.6222 70.5079 32.2519 70.2452 31.7658C69.9825 31.2796 69.8511 30.688 69.8511 29.9909C69.8511 29.2917 69.9845 28.699 70.2514 28.2129C70.5182 27.7268 70.8792 27.3576 71.3343 27.1052C71.7894 26.8528 72.2993 26.7266 72.864 26.7266C73.2488 26.7266 73.6046 26.7804 73.9314 26.888C74.2583 26.9935 74.5458 27.1486 74.7941 27.3534C75.0423 27.5561 75.244 27.8054 75.3991 28.1012C75.5543 28.397 75.6505 28.7352 75.6877 29.1159Z" fill="#FFB703"/>
<path d="M63.9413 33.1683H62.2906L64.4347 26.8135H66.4795L68.6236 33.1683H66.9729L65.4804 28.4146H65.4307L63.9413 33.1683ZM63.721 30.6674H67.1715V31.8341H63.721V30.6674Z" fill="#FFB703"/>
<path d="M53.5928 26.8135H55.4949L57.1084 30.748H57.1829L58.7964 26.8135H60.6985V33.1683H59.2029V29.2648H59.1501L57.6235 33.128H56.6678L55.1411 29.2431H55.0884V33.1683H53.5928V26.8135Z" fill="#FFB703"/>
<path d="M125.37 33.9043H119.354V6.23438H7.67084V30.2568H7.65521V33.4912L8.70013 34.7617C8.74363 34.928 8.75279 35.2134 8.43939 35.0283C8.12546 34.8429 3.60541 32.2338 1.3847 30.9521C0.339665 30.2393 -1.12298 28.1724 1.3847 25.6064C1.54147 25.4461 1.62465 25.316 1.64642 25.2715V19.1904H1.65521V0H125.37V33.9043Z" fill="#FFB703"/>
</svg>
