<svg width="32" height="32" viewBox="0 0 32 32" fill="none" xmlns="http://www.w3.org/2000/svg">
<path d="M26.6665 15.9997C26.6709 17.656 26.2839 19.2899 25.5371 20.7683C24.6517 22.5399 23.2906 24.03 21.6061 25.0717C19.9217 26.1134 17.9805 26.6655 15.9999 26.6663C14.6366 26.6699 13.2885 26.4083 12.0298 25.8993C11.5016 25.6857 10.9282 25.5882 10.3665 25.6834L7.63889 25.9739C6.7096 26.0729 5.92599 25.2891 6.02517 24.3598L6.31621 21.6331C6.41136 21.0713 6.31394 20.498 6.10034 19.9698C5.59128 18.7111 5.32973 17.363 5.33329 15.9997C5.33405 14.0191 5.88621 12.0779 6.92791 10.3935C7.96961 8.70903 9.45971 7.34787 11.2313 6.46245C12.7097 5.7157 14.3436 5.32873 15.9999 5.33304H16.6274C19.243 5.47735 21.7135 6.58137 23.5659 8.43372C25.4182 10.2861 26.5222 12.7566 26.6665 15.3722V15.9997Z" stroke="#131214" stroke-width="1.5" stroke-linecap="round" stroke-linejoin="round"/>
</svg>
