<svg width="32" height="32" viewBox="0 0 32 32" fill="none" xmlns="http://www.w3.org/2000/svg">
<path d="M12.6294 17.6103L19.9147 21.8557M19.9041 10.1437L12.6294 14.389M25.8667 8.53301C25.8667 10.3003 24.4341 11.733 22.6667 11.733C20.8994 11.733 19.4667 10.3003 19.4667 8.53301C19.4667 6.7657 20.8994 5.33301 22.6667 5.33301C24.4341 5.33301 25.8667 6.7657 25.8667 8.53301ZM13.0667 15.9997C13.0667 17.767 11.6341 19.1997 9.86675 19.1997C8.09944 19.1997 6.66675 17.767 6.66675 15.9997C6.66675 14.2324 8.09944 12.7997 9.86675 12.7997C11.6341 12.7997 13.0667 14.2324 13.0667 15.9997ZM25.8667 23.4663C25.8667 25.2337 24.4341 26.6663 22.6667 26.6663C20.8994 26.6663 19.4667 25.2337 19.4667 23.4663C19.4667 21.699 20.8994 20.2663 22.6667 20.2663C24.4341 20.2663 25.8667 21.699 25.8667 23.4663Z" stroke="#131214" stroke-width="1.5" stroke-linecap="round" stroke-linejoin="round"/>
</svg>
