<svg width="32" height="32" viewBox="0 0 32 32" fill="none" xmlns="http://www.w3.org/2000/svg">
<path d="M21.6026 17.6457C21.6026 17.6457 19.1912 24.415 17.3224 25.5149C15.4535 26.6148 14.2076 24.8919 14.2076 23.646C14.2076 22.4001 15.0624 18.5168 15.0624 18.5168L8.23283 19.3705C6.50515 19.5864 5.0644 18.0634 5.37587 16.3504L6.86861 8.14029C7.12195 6.74694 8.45155 5.81862 9.84686 6.06089L21.6026 8.10202M21.6026 17.6457V8.10202M21.6026 17.6457H24.641C25.1782 17.6457 25.6934 17.4323 26.0733 17.0524C26.4532 16.6726 26.6666 16.1574 26.6666 15.6201V10.1276C26.6666 9.59038 26.4532 9.07517 26.0733 8.6953C25.6934 8.31543 25.1782 8.10202 24.641 8.10202H21.6026" stroke="#131214" stroke-width="1.5" stroke-linecap="round" stroke-linejoin="round"/>
</svg>
