<svg width="32" height="32" viewBox="0 0 32 32" fill="none" xmlns="http://www.w3.org/2000/svg">
<path d="M10.3972 14.2205C10.3972 14.2205 12.8086 7.45121 14.6775 6.35131C16.5463 5.25142 17.7922 6.97426 17.7922 8.22017C17.7922 9.46609 16.9374 13.3494 16.9374 13.3494L23.767 12.4957C25.4947 12.2798 26.9354 13.8028 26.624 15.5158L25.1312 23.7259C24.8779 25.1193 23.5483 26.0476 22.153 25.8053L10.3972 23.7642M10.3972 14.2205V23.7642M10.3972 14.2205H7.35883C6.82161 14.2205 6.3064 14.4339 5.92653 14.8138C5.54666 15.1936 5.33325 15.7089 5.33325 16.2461V21.7386C5.33325 22.2758 5.54666 22.791 5.92653 23.1709C6.3064 23.5508 6.82161 23.7642 7.35883 23.7642H10.3972" stroke="#131214" stroke-width="1.5" stroke-linecap="round" stroke-linejoin="round"/>
</svg>
