<svg width="16" height="16" viewBox="0 0 16 16" fill="none" xmlns="http://www.w3.org/2000/svg">
<path d="M6.50244 6.66699H9.5031M6.50441 9.33366H8.50677M13.3332 8.00033C13.3353 8.82848 13.1418 9.64542 12.7684 10.3846C12.3257 11.2704 11.6452 12.0155 10.8029 12.5363C9.96071 13.0572 8.9901 13.3333 7.99984 13.3336C7.31819 13.3354 6.64413 13.2046 6.01477 12.9501C5.75069 12.8433 5.464 12.7946 5.18315 12.8422L3.81932 12.9874C3.35468 13.0369 2.96287 12.645 3.01246 12.1804L3.15798 10.817C3.20556 10.5362 3.15685 10.2495 3.05005 9.98539C2.79552 9.35603 2.66474 8.68197 2.66652 8.00033C2.6669 7.01006 2.94298 6.03945 3.46383 5.19723C3.98468 4.355 4.72973 3.67442 5.61553 3.23171C6.35474 2.85834 7.17169 2.66485 7.99984 2.66701H8.31356C9.62138 2.73916 10.8566 3.29117 11.7828 4.21735C12.709 5.14352 13.261 6.37878 13.3332 7.6866V8.00033Z" stroke="#131214" stroke-width="1.5" stroke-linecap="round" stroke-linejoin="round"/>
</svg>
