<svg width="20" height="20" viewBox="0 0 20 20" fill="none" xmlns="http://www.w3.org/2000/svg">
<path d="M12.1135 18.0711C12.1452 18.15 12.2002 18.2174 12.2712 18.2641C12.3423 18.3108 12.4259 18.3347 12.5109 18.3325C12.5959 18.3303 12.6781 18.3022 12.7467 18.2519C12.8152 18.2016 12.8668 18.1316 12.8943 18.0511L18.311 2.21781C18.3377 2.14397 18.3428 2.06406 18.3257 1.98744C18.3086 1.91081 18.27 1.84064 18.2145 1.78513C18.159 1.72961 18.0888 1.69106 18.0122 1.67397C17.9356 1.65688 17.8557 1.66197 17.7818 1.68864L1.9485 7.10531C1.86808 7.13289 1.79802 7.18441 1.74772 7.25295C1.69743 7.3215 1.66931 7.40379 1.66713 7.48878C1.66495 7.57377 1.68883 7.65739 1.73555 7.72842C1.78226 7.79945 1.84959 7.85448 1.9285 7.88614L8.53683 10.5361C8.74574 10.6198 8.93554 10.7449 9.0948 10.9038C9.25406 11.0628 9.37948 11.2524 9.4635 11.4611L12.1135 18.0711Z" stroke="#2C2C2C" stroke-width="1.66667" stroke-linecap="round" stroke-linejoin="round"/>
<path d="M18.2116 1.78906L9.09497 10.9049" stroke="#2C2C2C" stroke-width="1.66667" stroke-linecap="round" stroke-linejoin="round"/>
</svg>
