<svg width="24" height="24" viewBox="0 0 24 24" fill="none" xmlns="http://www.w3.org/2000/svg">
<path d="M12 3C12.4142 3 12.75 3.33579 12.75 3.75V6H15.75C16.1642 6 16.5 6.33579 16.5 6.75C16.5 7.16421 16.1642 7.5 15.75 7.5H12.75V11.25H13.875C14.7701 11.25 15.6288 11.6053 16.2617 12.2383C16.8947 12.8712 17.25 13.7299 17.25 14.625C17.25 15.5201 16.8947 16.3788 16.2617 17.0117C15.6288 17.6447 14.7701 18 13.875 18H12.75V20.25C12.75 20.6642 12.4142 21 12 21C11.5858 21 11.25 20.6642 11.25 20.25V18H7.5C7.08579 18 6.75 17.6642 6.75 17.25C6.75 16.8358 7.08579 16.5 7.5 16.5H11.25V12.75H10.125C9.22989 12.75 8.37122 12.3947 7.73828 11.7617C7.14482 11.1683 6.7952 10.3763 6.75391 9.54199L6.75 9.375C6.75 8.47989 7.10535 7.62122 7.73828 6.98828C8.37122 6.35535 9.22989 6 10.125 6H11.25V3.75C11.25 3.33579 11.5858 3 12 3ZM12.75 16.5H13.875L14.0605 16.4912C14.4897 16.4486 14.8935 16.2588 15.2012 15.9512C15.5528 15.5995 15.75 15.1223 15.75 14.625C15.75 14.1277 15.5528 13.6505 15.2012 13.2988C14.8935 12.9912 14.4897 12.8014 14.0605 12.7588L13.875 12.75H12.75V16.5ZM10.125 7.5C9.62772 7.5 9.15046 7.6972 8.79883 8.04883C8.4472 8.40046 8.25 8.87772 8.25 9.375L8.25879 9.56055C8.30144 9.98971 8.4912 10.3935 8.79883 10.7012C9.15046 11.0528 9.62772 11.25 10.125 11.25H11.25V7.5H10.125Z" fill="#6E7375"/>
</svg>
