<svg width="20" height="20" viewBox="0 0 20 20" fill="none" xmlns="http://www.w3.org/2000/svg">
<path d="M16.6666 9.39064V10.004C16.6658 11.4416 16.2002 12.8404 15.3395 13.9919C14.4787 15.1433 13.2688 15.9856 11.8902 16.3932C10.5115 16.8009 9.03809 16.7519 7.68956 16.2537C6.34104 15.7555 5.18969 14.8347 4.40723 13.6287C3.62476 12.4227 3.25311 10.996 3.3477 9.56152C3.44229 8.12702 3.99806 6.76153 4.9321 5.66869C5.86615 4.57586 7.12844 3.81423 8.53071 3.49741C9.93298 3.18059 11.4001 3.32554 12.7133 3.91065M7.49992 8.61127L9.68844 10.7998C10.0139 11.1252 10.5415 11.1252 10.867 10.7998L15.8333 5.8335" stroke="#008557" stroke-width="0.9375" stroke-linecap="round" stroke-linejoin="round"/>
</svg>
