<svg width="32" height="32" viewBox="0 0 32 32" fill="none" xmlns="http://www.w3.org/2000/svg">
<rect x="0.5" y="0.5" width="31" height="31" rx="15.5" stroke="#53575A"/>
<path d="M14.3148 16.8057L17.9575 18.9283M17.9522 13.0723L14.3148 15.195M20.9335 12.267C20.9335 13.1506 20.2172 13.867 19.3335 13.867C18.4498 13.867 17.7335 13.1506 17.7335 12.267C17.7335 11.3833 18.4498 10.667 19.3335 10.667C20.2172 10.667 20.9335 11.3833 20.9335 12.267ZM14.5335 16.0003C14.5335 16.884 13.8172 17.6003 12.9335 17.6003C12.0498 17.6003 11.3335 16.884 11.3335 16.0003C11.3335 15.1167 12.0498 14.4003 12.9335 14.4003C13.8172 14.4003 14.5335 15.1167 14.5335 16.0003ZM20.9335 19.7337C20.9335 20.6173 20.2172 21.3337 19.3335 21.3337C18.4498 21.3337 17.7335 20.6173 17.7335 19.7337C17.7335 18.85 18.4498 18.1337 19.3335 18.1337C20.2172 18.1337 20.9335 18.85 20.9335 19.7337Z" stroke="#131214" stroke-width="1.5" stroke-linecap="round" stroke-linejoin="round"/>
</svg>
