<svg width="53" height="53" viewBox="0 0 53 53" fill="none" xmlns="http://www.w3.org/2000/svg">
<path d="M30.9119 8.83398C31.7087 8.83397 32.4907 9.0495 33.175 9.45773C33.8592 9.86597 34.4203 10.4517 34.7988 11.1529L35.8721 13.1405C36.2506 13.8417 36.8117 14.4274 37.496 14.8356C38.1803 15.2439 38.9622 15.4594 39.759 15.4594H44.1693C45.3408 15.4594 46.4642 15.9247 47.2926 16.7531C48.1209 17.5814 48.5862 18.7049 48.5862 19.8763V39.7525C48.5862 40.9239 48.1209 42.0474 47.2926 42.8757C46.4642 43.704 45.3408 44.1694 44.1693 44.1694H8.83392C7.66248 44.1694 6.53901 43.704 5.71068 42.8757C4.88235 42.0474 4.41699 40.9239 4.41699 39.7525V19.8763C4.41699 18.7049 4.88235 17.5814 5.71068 16.7531C6.53901 15.9247 7.66248 15.4594 8.83392 15.4594H13.2442C14.0402 15.4594 14.8214 15.2444 15.5052 14.837C16.189 14.4295 16.75 13.8449 17.1289 13.1449L18.2088 11.1485C18.5877 10.4484 19.1487 9.86381 19.8325 9.4564C20.5164 9.04899 21.2975 8.83394 22.0935 8.83398H30.9119Z" stroke="#99A1AF" stroke-width="4.41693" stroke-linecap="round" stroke-linejoin="round"/>
<path d="M26.5014 35.3352C30.1605 35.3352 33.1268 32.369 33.1268 28.7099C33.1268 25.0508 30.1605 22.0845 26.5014 22.0845C22.8423 22.0845 19.876 25.0508 19.876 28.7099C19.876 32.369 22.8423 35.3352 26.5014 35.3352Z" stroke="#99A1AF" stroke-width="4.41693" stroke-linecap="round" stroke-linejoin="round"/>
</svg>
